<svg viewBox="0 0 45 45" fill="none" xmlns="http://www.w3.org/2000/svg">
  <path d="M23.3546 4.14014H21.5996C17.8646 4.14014 14.8496 7.20014 14.8496 10.9351V22.3651C14.8496 26.1001 17.9096 29.1601 21.6446 29.1601H23.3996C27.1346 29.1601 30.1496 26.1001 30.1496 22.3651V10.9351C30.1496 7.20014 27.1346 4.14014 23.3546 4.14014ZM28.7996 22.3651C28.7996 25.3801 26.3696 27.8101 23.3546 27.8101H21.5996C18.5846 27.8101 16.1546 25.3801 16.1546 22.3651V10.9351C16.1546 7.92014 18.5846 5.49014 21.5996 5.49014H23.3546C26.3696 5.49014 28.7996 7.92014 28.7996 10.9351V22.3651Z" fill="black"/>
  <path d="M22.5002 9.27002C22.1402 9.27002 21.8252 9.58502 21.8252 9.94502V14.76C21.8252 15.12 22.1402 15.435 22.5002 15.435C22.8602 15.435 23.1752 15.12 23.1752 14.76V9.94502C23.1752 9.54002 22.8602 9.27002 22.5002 9.27002Z" fill="black"/>
  <path d="M25.2449 36.4499L23.1749 38.5199V32.4899C23.1749 32.1299 22.8599 31.8149 22.4999 31.8149C22.1399 31.8149 21.8249 32.1299 21.8249 32.4899V38.5649L19.7549 36.4499C19.4849 36.1799 19.0799 36.1799 18.8099 36.4499C18.5399 36.7199 18.5399 37.1249 18.8099 37.3949L22.0499 40.6349C22.0949 40.6799 22.1849 40.7699 22.2749 40.7699C22.3649 40.8149 22.4549 40.8149 22.4999 40.8149C22.5449 40.8149 22.6799 40.8149 22.7249 40.7699C22.8149 40.7249 22.9049 40.6799 22.9499 40.6349L26.1899 37.3949C26.4599 37.1249 26.4599 36.7199 26.1899 36.4499C25.9199 36.1799 25.5149 36.2249 25.2449 36.4499Z" fill="black"/>
</svg>
